<svg id="Layer_1" xmlns="http://www.w3.org/2000/svg" viewBox="0 0 619.4 187.1">
  <style>
    .st1{fill:none;stroke:#000;stroke-width:10;stroke-miterlimit:10}
  </style>
  <g id="XMLID_1_">
    <path id="XMLID_227_" d="M484.5 88.5c-.3 1.4-1.4 2.6-3.1 3.6-1.7 1-3.7 1.4-6 1.4h-81.7c-2.3 0-4.1-.4-5.5-1.3-1.4-.8-2.1-1.9-2.1-3.1 0-.1.1-.2.2-.3.1-.1.2-.2.2-.3l16-70.7c.3-1.3 1.4-2.5 3.2-3.5 1.8-1 3.8-1.5 6.1-1.5h81.9c2.3 0 4 .5 5.2 1.6 1.2 1.1 1.8 2.2 1.8 3.4l-16.2 70.7zm-40.6-1.2l15.7-69.4h-16l-15.8 69.4h16.1z"/>
    <path id="XMLID_230_" d="M597.4 88.5c-.3 1.4-1.4 2.6-3.1 3.6-1.7 1-3.7 1.4-6 1.4h-24.4c-2.3 0-4.1-.4-5.4-1.3-1.3-.8-2-1.9-2-3.1 0-.1 0-.2.1-.3.1-.1.1-.2.1-.3L572 20.8c0-2-1.9-3-5.7-3h-9.8l-16.3 70.7c-.3 1.4-1.4 2.6-3 3.6-1.7 1-3.6 1.4-5.9 1.4h-33l18.6-80.7h77.6c11.8 0 17.7 3.4 17.7 10.3v1.8c0 .6-.2 1.2-.5 1.8l-14.3 61.8z"/>
  </g>
  <path id="XMLID_197_" fill="none" d="M89.6 97.2L280 95.8"/>
  <path id="XMLID_225_" class="st1" d="M25.3 140.6l586-2.2"/>
</svg>
