<svg id="Layer_1" xmlns="http://www.w3.org/2000/svg" viewBox="0 0 619.4 187.1">
  <style>
    .st0{fill:none;stroke:#fff;stroke-width:4;stroke-miterlimit:10}
  </style>
  <g id="XMLID_1_">
    <path id="XMLID_198_" class="st0" d="M103.1 170c-.5 3.1-1.5 5.6-3.1 7.7-1.6 2.1-3.7 3.1-6.2 3.1H71.1c-2.2 0-4-.9-5.3-2.8-1.4-1.8-2.1-4.1-2.1-6.7V170l3.8-32.9H51.1L47.5 170c-.3 3.1-1.4 5.6-3 7.7-1.7 2.1-3.6 3.1-5.9 3.1H15.7c-2.3 0-4.1-.9-5.5-2.8s-2.1-4.1-2.1-6.7c0-.3.1-.5.2-.7.1-.2.2-.4.2-.7l16-153.2c.3-2.9 1.4-5.4 3.2-7.6 1.7-2 3.7-3.1 6-3.1h22.9c2.3 0 4 1.2 5.2 3.5s1.8 4.8 1.8 7.4L52.1 126.3h16.3L80 16.8c.2-2.9 1.2-5.4 3-7.6C84.8 7.1 86.9 6 89.1 6H112c2.3 0 4 1.2 5.2 3.5s1.8 4.8 1.8 7.4L103.1 170z"/>
    <path id="XMLID_200_" class="st0" d="M133.9 16.8c.3-3.1 1.4-5.6 3.2-7.7 1.8-2.1 3.8-3.1 6.1-3.1h24.6c2.2 0 3.9.8 5.2 2.4 1.3 1.6 2 3.9 2 6.8l-15.3 144c0 .3 0 .6-.1.8-.1.2-.1.5-.1.8 0 4.3 1.9 6.4 5.9 6.4h10l15.8-150.5c.3-3.1 1.4-5.6 3.1-7.7 1.7-2 3.8-3 6.2-3h32.9l-18.6 174.9h-77.6c-7 0-11.7-2.3-14.1-6.8-2.4-4.5-3.6-11.3-3.6-20.4 0-.8 0-1.3.1-1.7.1-.4.1-.7.3-1l14-134.2z"/>
    <path id="XMLID_202_" class="st0" d="M322 170c-.3 3.1-1.3 5.6-2.9 7.7-1.6 2.1-3.7 3.1-6.2 3.1h-81.7c-2 0-2.9-1.2-2.9-3.5l2.6-25.1c.1-2.8 1.3-4.1 3.6-4.1h58.9l1-11H239c-2.1 0-3.8-.9-5.2-2.6-1.4-1.8-2.1-3.9-2.1-6.6 0-.2.1-.7.3-1.6l11.4-109.5c.3-2.9 1.4-5.4 3.2-7.6 1.8-2.1 3.8-3.2 6.1-3.2h81.9c1.5 0 2.3.4 2.3 1.2.1.8.2 1.8.4 3l-.2 2.3c-.3 2.9-1.6 4.4-3.8 4.4h-49l-11.4 109.5h45.3c2.3 0 4.1 1.2 5.3 3.5 1.3 2.3 1.9 4.8 1.9 7.4L322 170z"/>
    <path id="XMLID_204_" class="st0" d="M393.1 170c-.3 3.1-1.4 5.6-3.1 7.7-1.7 2.1-3.7 3.1-6 3.1h-24.4c-2.3 0-4.1-.9-5.5-2.8s-2.1-4.1-2.1-6.7c0-.3 0-.5.1-.7.1-.2.1-.4.1-.7l16.2-153.2H349c-2.1 0-3.1-.9-3.1-2.8 0-.3 0-.6.1-.8.1-.2.1-.5.1-.8l.2-2.3c.3-2.8 1.5-4.1 3.6-4.1h81.9c.8 0 1.3.2 1.5.5.2.3.3.7.3 1 0 .4 0 .8.1 1.3s.4.9.9 1.4l-.2 2.3c-.6 2.9-1.8 4.4-3.8 4.4h-21.3L393.1 170z"/>
    <path id="XMLID_206_" class="st0" d="M498.6 176.7c-.6 2.8-1.8 4.1-3.6 4.1h-59.9c-2.3 0-4.1-.9-5.5-2.8-1.4-1.8-2.1-4.1-2.1-6.7 0-.3.1-.5.2-.7.1-.2.2-.4.2-.7l16-153.2c.3-2.9 1.4-5.4 3.2-7.6 1.8-2.1 3.8-3.2 6.1-3.2h24.6c2.3 0 4.1 1.2 5.3 3.5 1.3 2.3 1.9 4.8 1.9 7.4l-14.1 131.4h27.2c1.6 0 2.4.4 2.5 1.2.1.8.2 1.8.4 3l-2.4 24.3z"/>
    <path id="XMLID_208_" class="st0" d="M602 176.7c-.3 2.8-1.5 4.1-3.6 4.1h-81.7c-2.6 0-4.5-1-5.6-3.1-1.1-2.1-1.6-4.6-1.6-7.7l15.8-153.2c.3-2.9 1.4-5.4 3.1-7.6 1.7-2.1 3.8-3.2 6.4-3.2h81.9c1.3 0 2 .4 2.3 1.2.3.8.4 1.8.4 3l-.2 2.3c-.3 2.9-1.6 4.4-3.8 4.4h-48.9l-2.9 28.8h38.5c1.3 0 2 .4 2.2 1.3.2.8.4 1.9.5 3.1l-.2 2.3c-.3 2.9-1.5 4.4-3.6 4.4h-38.7l-9.8 91.6h49c1.3 0 2 .4 2.3 1.2.3.8.4 1.8.4 3l-2.2 24.1z"/>
  </g>
</svg>
